<?xml version="1.0" encoding="UTF-8"?>
<svg id="Layer_1" data-name="Layer 1" xmlns="http://www.w3.org/2000/svg" viewBox="0 0 378.47 229.64">
  <defs>
    <style>
      .cls-1 {
        fill: #5bbd82;
        font-family: CourierNewPSMT, 'Courier New';
      }

      .cls-2 {
        stroke: #5bbd82;
      }

      .cls-2, .cls-3 {
        fill: none;
        stroke-linecap: round;
        stroke-linejoin: round;
        stroke-width: 2.5px;
      }

      .cls-4 {
        font-size: 32px;
        letter-spacing: .19em;
      }

      .cls-3 {
        stroke: #4599c8;
      }

      .cls-5 {
        font-size: 28px;
      }
    </style>
  </defs>
  <polyline class="cls-3" points="1.25 111.07 36.55 111.07 36.55 79.13 78.57 79.13 78.57 111.07 61.2 111.07 61.2 52.24 90.06 23.38 119.2 52.52 119.2 111.07 103.23 111.07 103.23 1.25 155.34 1.25 155.34 30.95 137.41 48.88 137.41 111.07 151.41 111.07 151.41 59.52 187.83 26.46 218.09 56.16 218.09 111.07 181.67 111.07 181.67 70.17 268.52 70.17 268.52 111.07 377.22 111.07"/>
  <g>
    <path class="cls-2" d="M365.19,58.78s-8.63,8.78-11.81,21.11,3.36,18.68,11.39,18.68,14.91-4.37,11.58-18.49-11.17-21.29-11.17-21.29Z"/>
    <line class="cls-2" x1="365.19" y1="82.12" x2="365.19" y2="104.16"/>
  </g>
  <g>
    <path class="cls-2" d="M291.72,58.78s-8.63,8.78-11.81,21.11,3.36,18.68,11.39,18.68,14.91-4.37,11.58-18.49-11.17-21.29-11.17-21.29Z"/>
    <line class="cls-2" x1="291.72" y1="82.12" x2="291.72" y2="104.16"/>
  </g>
  <g>
    <path class="cls-2" d="M328.45,58.78s-8.63,8.78-11.81,21.11,3.36,18.68,11.39,18.68,14.91-4.37,11.58-18.49-11.17-21.29-11.17-21.29Z"/>
    <line class="cls-2" x1="328.45" y1="82.12" x2="328.45" y2="104.16"/>
  </g>
  <g>
    <path class="cls-2" d="M13.87,58.78s-8.63,8.78-11.81,21.11,3.36,18.68,11.39,18.68,14.91-4.37,11.58-18.49-11.17-21.29-11.17-21.29Z"/>
    <line class="cls-2" x1="13.87" y1="82.12" x2="13.87" y2="104.16"/>
  </g>
  <text class="cls-1" transform="translate(40.58 149.94)"><tspan class="cls-4"><tspan x="0" y="0">SMART CITIES</tspan></tspan><tspan class="cls-5"><tspan x="106.65" y="33.6">WEDEL</tspan></tspan></text>
</svg>